<?xml version="1.0" standalone="no"?>
<!DOCTYPE svg PUBLIC "-//W3C//DTD SVG 20010904//EN"
 "http://www.w3.org/TR/2001/REC-SVG-20010904/DTD/svg10.dtd">
<svg version="1.0" xmlns="http://www.w3.org/2000/svg"
 width="512.000000pt" height="512.000000pt" viewBox="0 0 512.000000 512.000000"
 preserveAspectRatio="xMidYMid meet">

<g transform="translate(0.000000,512.000000) scale(0.100000,-0.100000)"
fill="#000000" stroke="none">
<path d="M2100 5105 c-141 -28 -285 -109 -383 -215 -53 -57 -56 -59 -89 -50
-52 16 -198 12 -259 -6 -172 -51 -303 -182 -353 -353 -9 -30 -16 -68 -16 -85
-1 -27 -8 -35 -62 -66 -137 -79 -218 -229 -205 -382 6 -66 4 -71 -38 -150 -58
-111 -85 -209 -92 -340 -7 -129 8 -231 49 -346 136 -375 541 -608 935 -539
l73 13 36 -59 c170 -276 535 -375 832 -227 42 21 96 55 119 74 l41 36 56 -14
c30 -8 76 -17 103 -21 78 -10 93 -15 93 -29 0 -7 16 -45 36 -84 59 -119 164
-199 366 -278 189 -74 229 -97 321 -182 95 -89 151 -115 242 -115 155 0 286
119 302 276 7 67 -20 164 -78 278 l-38 77 27 18 c129 84 274 291 319 456 9 35
32 83 49 108 81 115 117 228 118 370 1 110 -14 177 -59 277 -33 71 -33 73 -18
120 9 32 13 75 11 128 -5 99 -44 190 -112 263 -48 51 -137 105 -194 117 -24 5
-34 13 -38 33 -42 185 -118 327 -242 450 -161 161 -391 261 -602 262 -63 0
-66 1 -87 35 -32 48 -113 109 -180 136 -46 18 -78 23 -153 23 -107 0 -166 -19
-247 -81 l-44 -33 -92 44 c-145 72 -294 92 -447 61z m236 -166 c32 -6 92 -26
133 -46 69 -33 73 -36 67 -61 -4 -15 -9 -57 -13 -94 -5 -62 -4 -68 20 -92 59
-59 147 -13 147 77 1 82 63 171 145 208 48 22 142 25 189 5 46 -19 104 -73
127 -117 10 -21 23 -67 28 -101 10 -71 33 -98 88 -98 49 0 83 37 83 90 0 34 3
40 20 40 58 0 184 -36 265 -75 155 -75 253 -173 330 -330 52 -104 68 -175 40
-175 -9 0 -44 -14 -77 -32 -99 -53 -115 -129 -36 -172 l35 -20 64 34 c55 30
74 34 134 34 52 0 80 -5 110 -21 109 -58 158 -178 123 -297 -12 -38 -49 -81
-148 -168 -38 -34 -41 -78 -5 -113 35 -36 81 -33 144 9 l50 34 15 -46 c37
-115 26 -244 -29 -353 -61 -119 -197 -221 -332 -249 -110 -23 -247 0 -339 58
l-42 26 24 35 c66 101 65 284 -2 356 -31 34 -86 34 -119 0 -29 -28 -31 -51
-10 -120 44 -144 -91 -274 -230 -221 -41 16 -105 75 -105 97 0 5 -15 16 -34
24 -96 40 -154 -60 -88 -151 40 -54 98 -103 151 -127 59 -26 171 -33 231 -14
45 13 45 13 95 -24 68 -50 119 -75 206 -99 93 -25 236 -26 332 -1 37 9 67 15
67 11 0 -3 -21 -33 -48 -65 -95 -119 -238 -209 -381 -241 -41 -9 -82 -25 -92
-35 -43 -43 -32 -110 24 -137 24 -12 39 -10 120 11 51 14 101 28 113 31 18 6
25 -3 57 -71 54 -116 64 -162 46 -209 -20 -53 -68 -84 -131 -84 -47 0 -52 3
-121 68 -100 95 -164 135 -292 183 -215 80 -309 138 -352 216 l-23 40 68 11
c105 18 139 31 162 59 27 35 25 65 -6 102 -30 36 -46 38 -141 14 -105 -26
-306 -22 -403 7 -41 12 -94 24 -117 27 -39 5 -45 2 -101 -51 -158 -144 -361
-176 -548 -85 -26 12 -75 49 -110 81 -152 143 -194 361 -104 553 36 78 38 108
5 140 -30 31 -86 34 -115 5 -22 -22 -52 -79 -69 -132 -14 -43 -27 -46 -86 -19
-62 28 -103 81 -111 143 -13 99 -86 138 -146 77 -29 -28 -30 -34 -25 -88 13
-148 115 -267 261 -305 33 -9 60 -17 61 -18 2 -2 6 -33 10 -70 l7 -67 -29 -8
c-15 -4 -77 -8 -138 -8 -193 1 -332 60 -472 200 -140 142 -199 297 -190 500 5
104 32 223 57 249 6 5 26 -6 50 -28 70 -63 121 -69 160 -19 36 46 27 79 -36
137 -64 59 -93 108 -101 174 -11 94 38 188 124 239 41 24 59 28 118 28 82 -1
129 -21 190 -84 31 -33 46 -41 75 -41 61 0 100 58 76 113 -30 72 -151 154
-259 177 -55 11 -57 12 -51 38 13 56 50 119 99 168 63 64 138 94 232 94 l65 0
-6 -27 c-19 -81 -19 -120 3 -142 45 -45 111 -34 135 21 83 191 133 261 239
329 117 76 255 103 393 78z"/>
<path d="M2180 4259 c-188 -30 -352 -201 -382 -397 -13 -80 0 -118 45 -140 62
-30 111 10 121 96 17 151 123 257 276 277 59 8 87 25 102 64 12 34 -7 78 -43
96 -31 16 -39 17 -119 4z"/>
<path d="M3193 3825 c-13 -9 -28 -39 -38 -73 -41 -139 -130 -247 -252 -305
-58 -27 -82 -32 -165 -35 -144 -6 -230 27 -351 135 -45 40 -75 42 -116 7 -42
-35 -42 -80 0 -129 65 -73 251 -175 321 -175 30 0 20 -28 -28 -76 -56 -57
-131 -92 -214 -101 -78 -8 -110 -33 -110 -87 0 -44 46 -86 93 -86 61 1 168 29
230 62 82 43 174 137 212 215 29 60 32 63 80 74 28 6 88 29 135 51 152 73 274
218 324 387 22 75 20 88 -13 122 -33 33 -74 38 -108 14z"/>
<path d="M201 4843 c-12 -10 -24 -35 -28 -56 -6 -37 -4 -39 105 -149 101 -103
113 -112 147 -112 47 0 85 39 85 87 0 26 -16 47 -108 139 -97 97 -112 108
-144 108 -20 0 -45 -8 -57 -17z"/>
<path d="M4718 4752 c-96 -96 -108 -112 -108 -142 1 -39 14 -61 48 -79 43 -23
75 -4 187 109 106 108 108 110 102 147 -8 47 -38 73 -85 73 -32 0 -47 -11
-144 -108z"/>
<path d="M25 3725 c-32 -31 -32 -75 -1 -112 24 -28 25 -28 146 -28 121 0 122
0 146 28 31 37 31 81 -1 112 -23 24 -30 25 -145 25 -115 0 -122 -1 -145 -25z"/>
<path d="M4805 3725 c-32 -31 -32 -75 -1 -112 24 -28 25 -28 146 -28 121 0
122 0 146 28 31 37 31 81 -1 112 -23 24 -30 25 -145 25 -115 0 -122 -1 -145
-25z"/>
<path d="M278 2702 c-92 -92 -108 -113 -108 -139 0 -48 38 -87 85 -87 34 0 46
9 146 110 93 95 109 115 109 143 0 45 -38 81 -87 81 -34 0 -46 -9 -145 -108z"/>
<path d="M4635 2785 c-16 -16 -25 -35 -25 -57 0 -27 15 -47 108 -140 91 -91
113 -108 139 -108 45 0 62 9 79 42 26 50 11 77 -100 187 -93 91 -107 101 -140
101 -26 0 -44 -7 -61 -25z"/>
<path d="M142 2274 c-29 -14 -65 -42 -82 -62 -63 -77 -61 -34 -58 -1078 3
-903 4 -951 22 -984 26 -49 74 -98 121 -123 38 -21 52 -22 325 -22 272 0 287
1 325 21 22 12 49 31 59 43 l19 21 1117 0 c1072 0 1120 1 1193 19 41 11 95 29
119 41 105 53 1690 1025 1723 1057 61 59 90 133 90 228 -1 64 -5 90 -25 130
-52 107 -152 174 -270 183 -66 4 -76 1 -896 -272 -555 -185 -846 -277 -879
-278 -49 -3 -50 -2 -45 22 3 14 5 68 5 120 0 87 -3 101 -32 160 -60 121 -159
210 -288 261 -57 22 -75 23 -400 29 -317 6 -345 8 -410 30 -92 30 -165 67
-250 130 -82 60 -225 132 -310 155 -40 11 -116 19 -226 22 l-165 5 -23 44
c-13 24 -39 55 -57 69 -69 53 -83 55 -377 55 l-273 0 -52 -26z m596 -164 c12
-11 24 -31 27 -43 3 -12 4 -433 3 -935 l-3 -914 -28 -24 c-28 -24 -29 -24
-268 -24 l-241 0 -29 29 -29 29 0 917 c0 789 2 920 15 945 8 15 20 30 27 33 7
3 124 6 259 6 233 1 246 0 267 -19z m505 -166 c99 -22 186 -64 283 -134 102
-75 196 -122 310 -156 87 -26 97 -27 424 -33 l336 -6 66 -33 c147 -72 215
-223 158 -349 l-19 -43 -318 0 c-284 0 -327 -2 -403 -20 -95 -23 -240 -90
-315 -148 -44 -33 -50 -43 -53 -79 -3 -47 18 -78 62 -89 26 -6 53 7 161 74 28
17 84 44 125 59 l75 28 490 5 490 5 830 278 c457 152 844 277 860 277 69 0
144 -75 145 -143 0 -37 -22 -87 -51 -114 -39 -35 -1639 -1005 -1704 -1033
l-60 -25 -1097 -3 -1098 -2 0 850 0 850 116 0 c70 0 143 -6 187 -16z"/>
</g>
</svg>
